<?xml version="1.0" encoding="UTF-8" standalone="no"?>
<!DOCTYPE svg PUBLIC "-//W3C//DTD SVG 1.1//EN" "http://www.w3.org/Graphics/SVG/1.1/DTD/svg11.dtd">
<svg width="100%" height="100%" viewBox="0 0 960 540" version="1.1" xmlns="http://www.w3.org/2000/svg" xmlns:xlink="http://www.w3.org/1999/xlink" xml:space="preserve" xmlns:serif="http://www.serif.com/" style="fill-rule:evenodd;clip-rule:evenodd;stroke-miterlimit:8;">
    <g transform="matrix(1,0,0,1,0,-1.20699e-05)">
        <rect x="0" y="0" width="959.76" height="540" style="fill:white;"/>
    </g>
    <g transform="matrix(1,0,0,1,0,-1.40816e-05)">
        <rect x="0" y="0" width="960" height="540" style="fill:white;"/>
    </g>
    <g transform="matrix(1,0,0,1,0,34.2692)">
        <rect x="52.75" y="179.654" width="529.269" height="146.423" style="fill:white;stroke:rgb(68,114,196);stroke-width:1px;"/>
    </g>
    <g transform="matrix(1,0,0,1,0,-243.346)">
        <rect x="52.75" y="335.769" width="529.269" height="111.808" style="fill:white;stroke:rgb(68,114,196);stroke-width:1px;"/>
    </g>
    <g transform="matrix(1,0,0,1,0,-225.856)">
        <rect x="75.942" y="350.654" width="480.115" height="64.548" style="fill:rgb(68,114,196);stroke:rgb(47,82,143);stroke-width:1px;"/>
    </g>
    <g transform="matrix(1,0,0,1,0,-225.419)">
        <rect x="200.353" y="362.632" width="101.627" height="40.154" style="fill:rgb(165,165,165);stroke:rgb(120,120,120);stroke-width:1px;"/>
    </g>
    <g transform="matrix(1,0,0,1,0,-225.419)">
        <rect x="313.576" y="362.632" width="118.245" height="40.154" style="fill:rgb(165,165,165);stroke:rgb(120,120,120);stroke-width:1px;"/>
    </g>
    <g transform="matrix(1,0,0,1,0,-225.856)">
        <rect x="440.125" y="362.851" width="98.308" height="40.154" style="fill:rgb(165,165,165);stroke:rgb(120,120,120);stroke-width:1px;"/>
    </g>
    <g transform="matrix(1,0,0,1,0,105.512)">
        <rect x="109.708" y="195.059" width="86.099" height="44.37" style="fill:rgb(68,114,196);stroke:rgb(47,82,143);stroke-width:1px;"/>
    </g>
    <g transform="matrix(1,0,0,1,0,45.8685)">
        <rect x="461.381" y="194.322" width="107.82" height="105.487" style="fill:rgb(68,114,196);stroke:rgb(47,82,143);stroke-width:1px;"/>
    </g>
    <g transform="matrix(1,0,0,1,0,-12.5074)">
        <rect x="109.708" y="255.626" width="331.298" height="41.255" style="fill:rgb(68,114,196);stroke:rgb(47,82,143);stroke-width:1px;"/>
    </g>
    <g transform="matrix(1,0,0,1,0,105.156)">
        <rect x="313.689" y="195.415" width="131.884" height="44.015" style="fill:rgb(68,114,196);stroke:rgb(47,82,143);stroke-width:1px;"/>
    </g>
    <g transform="matrix(1,0,0,1,0,295.899)">
        <rect x="52.75" y="76.846" width="529.269" height="90.409" style="fill:white;stroke:rgb(68,114,196);stroke-width:1px;"/>
    </g>
    <g transform="matrix(1,0,0,1,0,15.577)">
        <rect x="593.308" y="76.846" width="281.676" height="370.731" style="fill:white;stroke:rgb(68,114,196);stroke-width:1px;"/>
    </g>
    <g transform="matrix(1,0,0,1,0,105.512)">
        <rect x="206.107" y="195.059" width="90.692" height="44.37" style="fill:rgb(68,114,196);stroke:rgb(47,82,143);stroke-width:1px;"/>
    </g>
    <g transform="matrix(1,0,0,1,0,318.628)">
        <rect x="108.827" y="89.426" width="86.098" height="42.52" style="fill:rgb(68,114,196);stroke:rgb(47,82,143);stroke-width:1px;"/>
    </g>
    <g transform="matrix(1,0,0,1,0,318.628)">
        <rect x="204.738" y="89.426" width="90.692" height="42.52" style="fill:rgb(68,114,196);stroke:rgb(47,82,143);stroke-width:1px;"/>
    </g>
    <g transform="matrix(1,0,0,1,0,73.8827)">
        <rect x="482.357" y="216.813" width="74.582" height="32.49" style="fill:rgb(165,165,165);stroke:rgb(120,120,120);stroke-width:1px;"/>
    </g>
    <g transform="matrix(1,0,0,1,0,315.226)">
        <rect x="312.808" y="91.127" width="131.884" height="42.52" style="fill:rgb(68,114,196);stroke:rgb(47,82,143);stroke-width:1px;"/>
    </g>
    <g transform="matrix(1,0,0,1,0,315.226)">
        <rect x="461.381" y="91.127" width="106.058" height="42.52" style="fill:rgb(68,114,196);stroke:rgb(47,82,143);stroke-width:1px;"/>
    </g>
    <g transform="matrix(1,0,0,1,0,-214.965)">
        <rect x="607.5" y="341.301" width="252" height="72.363" style="fill:rgb(68,114,196);stroke:rgb(47,82,143);stroke-width:1px;"/>
    </g>
    <g transform="matrix(1,0,0,1,0,-77.2365)">
        <rect x="607.5" y="287.358" width="252" height="42.52" style="fill:rgb(68,114,196);stroke:rgb(47,82,143);stroke-width:1px;"/>
    </g>
    <g transform="matrix(1,0,0,1,0,20.5825)">
        <rect x="607.5" y="238.449" width="252" height="42.52" style="fill:rgb(68,114,196);stroke:rgb(47,82,143);stroke-width:1px;"/>
    </g>
    <g transform="matrix(1,0,0,1,0,205.269)">
        <rect x="607.5" y="109.038" width="255.808" height="116.654" style="fill:rgb(68,114,196);stroke:rgb(47,82,143);stroke-width:1px;"/>
    </g>
    <g transform="matrix(1,0,0,1,0,265.671)">
        <rect x="619.823" y="123.435" width="69.137" height="27.459" style="fill:rgb(165,165,165);stroke:rgb(120,120,120);stroke-width:1px;"/>
    </g>
    <g transform="matrix(1,0,0,1,0,265.671)">
        <rect x="692.733" y="123.435" width="57.101" height="27.459" style="fill:rgb(165,165,165);stroke:rgb(120,120,120);stroke-width:1px;"/>
    </g>
    <g transform="matrix(1,0,0,1,0,265.671)">
        <rect x="759.647" y="123.435" width="96.327" height="27.459" style="fill:rgb(165,165,165);stroke:rgb(120,120,120);stroke-width:1px;"/>
    </g>
    <g transform="matrix(1,0,0,1,0,-212.344)">
        <rect x="759.647" y="362.851" width="85.661" height="26.642" style="fill:rgb(165,165,165);stroke:rgb(120,120,120);stroke-width:1px;"/>
    </g>
    <text x="59.95px" y="234.48px" style="font-family:'LucidaGrande', 'Lucida Grande', sans-serif;font-weight:500;font-size:18px;">B<tspan x="69.223px 78.083px 86.222px 95.662px 104.609px 114.7px " y="234.48px 234.48px 234.48px 234.48px 234.48px 234.48px ">ackend</tspan></text>
    <text x="59.95px" y="113.04px" style="font-family:'LucidaGrande', 'Lucida Grande', sans-serif;font-weight:500;font-size:18px;">U<tspan x="71.951px " y="113.04px ">I</tspan></text>
    <text x="83.142px" y="163.2px" style="font-family:'LucidaGrande', 'Lucida Grande', sans-serif;font-weight:500;font-size:18px;fill:white;">Q<tspan x="97.005px 112.389px " y="163.2px 163.2px ">ML</tspan></text>
    <text x="211.791px" y="163.44px" style="font-family:'LucidaGrande', 'Lucida Grande', sans-serif;font-weight:500;font-size:18px;fill:white;">Q<tspan x="224.721px 234.839px 238.988px 247.154px 256.621px 260.753px 266.432px 275.407px " y="163.44px 163.44px 163.44px 163.44px 163.44px 163.44px 163.44px 163.44px ">uickItem</tspan></text>
    <text x="334.636px" y="163.44px" style="font-family:'LucidaGrande', 'Lucida Grande', sans-serif;font-weight:500;font-size:18px;fill:white;">J<tspan x="339.433px 348.572px 357.087px 366.225px 375.118px 383.536px 390.1px 394.501px 405.029px " y="163.44px 163.44px 163.44px 163.44px 163.44px 163.44px 163.44px 163.44px 163.44px ">avaScript</tspan></text>
    <text x="464.966px" y="163.2px" style="font-family:'LucidaGrande', 'Lucida Grande', sans-serif;font-weight:500;font-size:18px;fill:white;">A<tspan x="476.128px 484.047px 491.966px 500.738px 506.213px " y="163.2px 163.2px 163.2px 163.2px 163.2px ">ssets</tspan></text>
    <text x="119.82px" y="329.04px" style="font-family:'LucidaGrande', 'Lucida Grande', sans-serif;font-weight:500;font-size:18px;fill:white;">D<tspan x="132.402px 141.53px 149.849px 160.005px 170.434px 179.562px " y="329.04px 329.04px 329.04px 329.04px 329.04px 329.04px ">ecoder</tspan></text>
    <g>
        <text x="468.581px" y="260.88px" style="font-family:'LucidaGrande', 'Lucida Grande', sans-serif;font-weight:500;font-size:18px;fill:white;">P<tspan x="477.468px 481.608px 490.486px 498.828px 502.968px 507.109px 515.222px " y="260.88px 260.88px 260.88px 260.88px 260.88px 260.88px 260.88px ">laylist</tspan></text>
        <text x="212.169px" y="270px" style="font-family:'LucidaGrande', 'Lucida Grande', sans-serif;font-weight:500;font-size:18px;fill:white;">H<tspan x="224.408px 234.59px 240.967px 247.343px 251.557px 259.788px 268.74px 278.922px " y="270px 270px 270px 270px 270px 270px 270px 270px ">urricane</tspan></text>
        <text x="291.91px" y="270px" style="font-family:'LucidaGrande', 'Lucida Grande', sans-serif;font-weight:500;font-size:18px;fill:white;">P<tspan x="300.87px 305.084px 314.036px 322.451px 331.491px " y="270px 270px 270px 270px 270px ">layer</tspan></text>
    </g>
    <text x="340.756px" y="328.8px" style="font-family:'LucidaGrande', 'Lucida Grande', sans-serif;font-weight:500;font-size:18px;fill:white;">A<tspan x="352.175px 362.346px 372.676px 376.879px 386.936px 395.631px 399.834px 410.006px " y="328.8px 328.8px 328.8px 328.8px 328.8px 328.8px 328.8px 328.8px ">udioSink</tspan></text>
    <text x="59.95px" y="393.36px" style="font-family:'LucidaGrande', 'Lucida Grande', sans-serif;font-weight:500;font-size:18px;">I<tspan x="64.06px 74.155px 79.812px 88.765px 95.055px 100.597px 109.462px 119.558px 127.702px " y="393.36px 393.36px 393.36px 393.36px 393.36px 393.36px 393.36px 393.36px 393.36px ">nterfance</tspan></text>
    <text x="600.508px" y="113.04px" style="font-family:'LucidaGrande', 'Lucida Grande', sans-serif;font-weight:500;font-size:18px;">T<tspan x="610.748px 620.663px 630.578px 634.639px " y="113.04px 113.04px 113.04px 113.04px ">ools</tspan></text>
    <text x="223.828px" y="329.04px" style="font-family:'LucidaGrande', 'Lucida Grande', sans-serif;font-weight:500;font-size:18px;fill:white;">R<tspan x="234.25px 243.319px 253.53px 263.899px 272.968px " y="329.04px 329.04px 329.04px 329.04px 329.04px ">ender</tspan></text>
    <text x="120.689px" y="435.6px" style="font-family:'LucidaGrande', 'Lucida Grande', sans-serif;font-weight:500;font-size:18px;fill:white;">F<tspan x="129.247px 137.805px 153.518px 163.755px 172.691px " y="435.6px 435.6px 435.6px 435.6px 435.6px ">Fmpeg</tspan></text>
    <text x="218.272px" y="435.6px" style="font-family:'LucidaGrande', 'Lucida Grande', sans-serif;font-weight:500;font-size:18px;fill:white;">O<tspan x="231.405px 241.884px 251.062px 261.383px 273.541px " y="435.6px 435.6px 435.6px 435.6px 435.6px ">penGL</tspan></text>
    <text x="489.898px" y="313.2px" style="font-family:'LucidaGrande', 'Lucida Grande', sans-serif;font-weight:500;font-size:18px;fill:white;">P<tspan x="498.883px 508.975px 519.181px 527.621px 538.408px " y="313.2px 313.2px 313.2px 313.2px 313.2px ">onyKV</tspan></text>
    <text x="339.625px" y="433.92px" style="font-family:'LucidaGrande', 'Lucida Grande', sans-serif;font-weight:500;font-size:18px;fill:white;">P<tspan x="348.658px 358.798px 365.246px 371.062px 382.564px 392.818px 403.231px 407.517px " y="433.92px 433.92px 433.92px 433.92px 433.92px 433.92px 433.92px 433.92px ">ortAudio</tspan></text>
    <text x="489.285px" y="433.92px" style="font-family:'LucidaGrande', 'Lucida Grande', sans-serif;font-weight:500;font-size:18px;fill:white;">S<tspan x="498.136px 511.276px 520.03px 524.39px 530.28px " y="433.92px 433.92px 433.92px 433.92px 433.92px ">QLite</tspan></text>
    <g>
        <text x="614.7px" y="168.72px" style="font-family:'LucidaGrande', 'Lucida Grande', sans-serif;font-weight:500;font-size:18px;fill:white;">G<tspan x="626.717px 630.929px 636.671px 648.908px 659.088px 669.426px 674.131px 685.559px 693.788px 699.529px 703.741px 713.807px " y="168.72px 168.72px 168.72px 168.72px 168.72px 168.72px 168.72px 168.72px 168.72px 168.72px 168.72px 168.72px ">itHub Action</tspan></text>
        <text x="614.7px" y="237.6px" style="font-family:'LucidaGrande', 'Lucida Grande', sans-serif;font-weight:500;font-size:18px;fill:white;">S<tspan x="623.456px 632.547px 638.341px 648.574px 658.965px 663.722px 672.478px 680.76px 687.187px 691.452px 701.843px " y="237.6px 237.6px 237.6px 237.6px 237.6px 237.6px 237.6px 237.6px 237.6px 237.6px 237.6px ">etup Script</tspan></text>
        <text x="614.7px" y="286.56px" style="font-family:'LucidaGrande', 'Lucida Grande', sans-serif;font-weight:500;font-size:18px;fill:white;">B<tspan x="624.062px 634.242px 638.454px 642.665px 653.003px 657.707px 666.41px 674.639px 681.012px 685.224px 695.562px " y="286.56px 286.56px 286.56px 286.56px 286.56px 286.56px 286.56px 286.56px 286.56px 286.56px 286.56px ">uild Script</tspan></text>
        <text x="614.7px" y="334.8px" style="font-family:'LucidaGrande', 'Lucida Grande', sans-serif;font-weight:500;font-size:18px;fill:white;">P<tspan x="623.681px 632.652px 640.903px 650.455px 659.427px 669.682px 678.741px 683.468px 692.194px 700.445px 706.841px 711.076px 721.436px " y="334.8px 334.8px 334.8px 334.8px 334.8px 334.8px 334.8px 334.8px 334.8px 334.8px 334.8px 334.8px 334.8px ">ackage Script</tspan></text>
    </g>
    <text x="632.454px" y="408.96px" style="font-family:'LucidaGrande', 'Lucida Grande', sans-serif;font-weight:500;font-size:18px;fill:white;">h<tspan x="642.704px 653.111px 663.361px 669.172px 673.453px 677.735px 703.222px 715.598px 724.371px 728.635px 737.408px 767.562px 779.059px 789.467px 799.874px 804.139px 820.022px 829.041px 839.343px " y="408.96px 408.96px 408.96px 408.96px 408.96px 408.96px 408.96px 408.96px 408.96px 408.96px 408.96px 408.96px 408.96px 408.96px 408.96px 408.96px 408.96px 408.96px 408.96px ">dutil	NSIS	AppImage</tspan></text>
    <text x="768.227px" y="169.92px" style="font-family:'LucidaGrande', 'Lucida Grande', sans-serif;font-weight:500;font-size:18px;fill:white;">D<tspan x="780.442px 790.23px 800.001px 808.137px 818.093px 826.853px " y="169.92px 169.92px 169.92px 169.92px 169.92px 169.92px ">oxygen</tspan></text>
    <g transform="matrix(1,0,0,1,0,-106.468)">
        <path d="M253.873,343.961L253.873,302.506L251.623,302.506L251.623,343.961L253.873,343.961ZM249.373,342.836L252.748,349.586L256.123,342.836L249.373,342.836ZM256.123,303.631L252.748,296.881L249.373,303.631L256.123,303.631Z" style="fill-rule:nonzero;"/>
    </g>
    <g transform="matrix(1,0,0,1,0,210.939)">
        <path d="M379.955,189.806L380.676,139.287L378.426,139.255L377.705,189.774L379.955,189.806ZM375.472,188.617L378.75,195.415L382.221,188.713L375.472,188.617ZM382.909,140.444L379.631,133.647L376.16,140.348L382.909,140.444Z" style="fill-rule:nonzero;"/>
    </g>
    <g transform="matrix(1,0,0,1,0,212.031)">
        <path d="M515.616,188.714L516.334,139.287L514.084,139.255L513.366,188.682L515.616,188.714ZM511.133,187.524L514.41,194.322L517.882,187.622L511.133,187.524ZM518.567,140.445L515.291,133.647L511.818,140.347L518.567,140.445Z" style="fill-rule:nonzero;"/>
    </g>
    <g transform="matrix(1,0,0,1,0,212.995)">
        <path d="M251.331,189.46L252.456,137.594L250.206,137.545L249.081,189.411L251.331,189.46ZM246.856,188.237L250.084,195.059L253.605,188.384L246.856,188.237ZM254.681,138.768L251.453,131.946L247.933,138.621L254.681,138.768Z" style="fill-rule:nonzero;"/>
    </g>
    <g transform="matrix(1,0,0,1,0,212.995)">
        <path d="M153.08,189.45L153.804,137.586L151.554,137.555L150.83,189.419L153.08,189.45ZM148.596,188.263L151.876,195.059L155.345,188.357L148.596,188.263ZM156.038,138.743L152.757,131.946L149.288,138.648L156.038,138.743Z" style="fill-rule:nonzero;"/>
    </g>
    <g transform="matrix(1,0,0,1,0,-109.396)">
        <path d="M515.535,343.961L515.535,305.434L513.285,305.434L513.285,343.961L515.535,343.961ZM511.035,342.836L514.41,349.586L517.785,342.836L511.035,342.836ZM517.785,306.559L514.41,299.809L511.035,306.559L517.785,306.559Z" style="fill-rule:nonzero;"/>
    </g>
</svg>
